<?xml version="1.0" encoding="UTF-8"?>
<svg width="230px" height="283px" viewBox="0 0 230 283" version="1.1" xmlns="http://www.w3.org/2000/svg" xmlns:xlink="http://www.w3.org/1999/xlink">
    <title>Path</title>
    <g id="Design" stroke="none" stroke-width="1" fill="none" fill-rule="evenodd" opacity="0.400000006">
        <g id="MO_MAN_100_04_PRODUCTS_03" transform="translate(-65.000000, -502.000000)" stroke="#FFFAF6">
            <g id="++-OUR-PRODUCTS" transform="translate(0.000000, 105.000000)">
                <path d="M66.3066843,679.999676 C70.531305,662.392752 76.9853401,646.450247 85.9870784,632.873516 C104.188935,605.420134 125.732233,568.989591 125.732233,556.367008 C125.732233,545.577349 119.813635,535.838977 113.605761,525.647364 L112.90205,524.491579 C112.432489,523.719658 111.96249,522.944831 111.494473,522.166452 L110.794236,520.99614 C110.677879,520.800617 110.561721,520.604852 110.4458,520.408834 C110.302073,520.165772 110.158869,519.923217 110.016231,519.681043 L109.590059,518.955545 C109.165673,518.230943 108.746772,517.50866 108.334524,516.785341 L107.924538,516.061551 C107.720697,515.69936 107.518617,515.336629 107.318443,514.97294 L106.920682,514.24416 L106.920682,514.24416 L106.528265,513.512078 C101.267877,503.603338 97.5394299,492.588217 98.2167981,472.209992 C99.0523378,447.052408 126.49677,398 126.49677,398 L233.50323,398 C233.50323,398 260.947662,447.052408 261.783202,472.209992 C262.569283,495.858796 257.421218,506.897879 250.832341,518.231592 L250.409861,518.955545 L250.409861,518.955545 L249.983728,519.681043 C249.841103,519.923217 249.697912,520.165772 249.5542,520.408834 C248.51081,522.172992 247.448213,523.916713 246.393969,525.647364 L245.692681,526.799276 C239.74739,536.575445 234.26705,545.984506 234.26705,556.367008 C234.26705,568.989591 255.811065,605.420134 274.012204,632.873516 C283.014297,646.450247 289.468512,662.392752 293.693223,679.999676" id="Path"></path>
            </g>
        </g>
    </g>
</svg>