<?xml version="1.0" encoding="UTF-8"?>
<svg version="1.1" x="0px" y="0px" viewBox="0 0 480 360" style="enable-background:new 0 0 480 360;" xmlns="http://www.w3.org/2000/svg" xmlns:xlink="http://www.w3.org/1999/xlink">
    <title>Stroke 1</title>
    <g id="Design" stroke="none" stroke-width="1" fill="none" fill-rule="evenodd" opacity="0.300000012">
        <g id="PC_MAN_100_01" transform="translate(-815.000000, -1348.000000)" stroke="#FFFAF6">
            <g id="+++-OUR-PRODUCT_DEFAULT" transform="translate(0.000000, 88.000000)">
                <g id="+++++-THUMB" transform="translate(816.000000, 1260.000000)">
                    <path d="M266.081732,48.5 C271.263577,48.5 273.222564,49.1207345 275.504261,51.0828523 C275.829769,51.3491348 276.034495,51.5082388 276.283564,51.7017662 C281.104428,55.4475938 302.858804,72.3565878 302.858804,107.313753 C302.858804,146.736379 280.253877,161.152127 280.253877,161.152127 L280.253877,161.152127 L280.021763,165.365069 L304.196991,165.365069 C304.800201,165.365069 305.285412,165.584146 305.62099,165.963587 C305.996265,166.387913 306.184283,166.994903 306.184283,167.677469 L306.184283,167.677469 L306.184283,186.503821 C306.184283,187.068808 306.055709,187.552994 305.838533,187.945735 C305.605914,188.366402 305.272822,188.679884 304.900468,188.871552 C304.529365,189.062354 301.258769,191.178256 297.661811,193.508247 L297.661811,193.508247 L296.639479,194.170438 L295.919755,194.636488 L295.202273,195.100876 C291.647916,197.400749 288.346301,199.528331 287.80112,199.808658 C287.3153,200.057528 286.286587,200.59177 285.573601,201.313727 C285.06878,201.824899 284.730754,202.425942 284.730754,203.066065 L284.730754,203.066065 L284.730754,213.471436 C284.730754,214.279874 285.139397,215.073495 285.927296,215.804544 C286.66774,216.491562 287.750161,217.129624 289.080169,217.682945 C290.122054,218.116398 296.914343,220.537145 304.497667,223.220855 L305.327839,223.514584 C305.744255,223.661887 306.162488,223.809786 306.581733,223.958 L307.421335,224.254768 C311.483626,225.690382 315.590356,227.138089 319.014529,228.345121 C323.594872,229.959706 326.951479,231.142828 327.33732,231.287355 C327.929584,231.509202 328.497484,231.943341 328.904409,232.505756 C329.2651,233.004272 329.5,233.606314 329.5,234.25684 L329.5,234.25684 L329.5,398.375283 C329.5,408.79236 324.637853,421.627033 314.673111,430.941736 C306.7679,438.331259 295.647803,443.5 281.191302,443.5 L281.191302,443.5 L198.807688,443.5 C184.351262,443.5 173.231401,438.331312 165.326418,430.941849 C155.361871,421.627136 150.5,408.792401 150.5,398.375283 L150.5,398.375283 L150.5,234.25684 C150.5,233.606314 150.7349,233.004272 151.095591,232.505756 C151.502516,231.943341 152.070416,231.509202 152.6628,231.28731 C152.672244,231.28377 152.683469,231.279607 152.696451,231.27483 L152.795219,231.238868 C153.551651,230.965335 156.770548,229.830708 161.043214,228.324532 C164.105686,227.244966 167.708923,225.974773 171.335428,224.693846 L171.335428,224.693846 L172.426609,224.308349 L172.426609,224.308349 L173.258123,224.014473 C180.456204,221.470039 187.384622,219.00847 189.981002,218.042689 L190.261128,217.937971 C190.564973,217.823732 190.787485,217.737584 190.918754,217.682973 C192.249101,217.129739 193.331377,216.491786 194.071684,215.804894 C194.859687,215.073748 195.268236,214.280014 195.268236,213.471436 L195.268236,213.471436 L195.268236,203.066065 C195.268236,202.426355 194.930662,201.825682 194.426432,201.314732 C193.713946,200.59275 192.685774,200.058434 192.243946,199.831793 C191.65391,199.528439 188.352188,197.400816 184.797783,195.100912 L184.797783,195.100912 L184.080332,194.636544 L183.360576,194.170474 L182.338201,193.508255 C178.741231,191.178256 175.470635,189.062354 175.099742,188.87166 C174.727178,188.679884 174.394086,188.366402 174.161467,187.945735 C173.944291,187.552994 173.815717,187.068808 173.815717,186.503821 L173.815717,186.503821 L173.815717,167.677469 C173.815717,166.994903 174.003735,166.387913 174.37901,165.963587 C174.714588,165.584146 175.199799,165.365069 175.803009,165.365069 L175.803009,165.365069 L196.562881,165.365069 L196.562881,161.292173 C196.330783,161.152138 173.727859,146.736385 173.727859,107.313753 C173.727859,72.3563206 195.481693,55.4473322 200.302218,51.7016763 C200.661087,51.4228274 200.928825,51.2143342 201.090828,51.0749371 C203.363089,49.1207345 205.322076,48.5 210.503922,48.5 L210.503922,48.5 Z" id="Stroke-1"></path>
                </g>
            </g>
    
        </g>
    </g>
</svg>