<?xml version="1.0" encoding="UTF-8"?>
<svg width="162px" height="311px" viewBox="0 0 162 311" version="1.1" xmlns="http://www.w3.org/2000/svg" xmlns:xlink="http://www.w3.org/1999/xlink">
    <title>Path</title>
    <g id="Design" stroke="none" stroke-width="1" fill="none" fill-rule="evenodd" opacity="0.400000006">
        <g id="MO_MAN_100_04_PRODUCTS_05" transform="translate(-99.000000, -716.000000)" stroke="#FFFAF6">
            <g id="++-OUR-PRODUCTS" transform="translate(0.000000, 105.000000)">
                <g id="+++-PERFUME_SELECTED" transform="translate(0.000000, 562.000000)">
                    <path d="M260,360 L260,215.561635 C260,214.140965 258.936278,212.935603 257.789073,212.505889 C256.641869,212.076175 225.982428,201.327911 223.797534,200.418935 C221.612639,199.509958 220.205114,198.346937 220.205114,197.085721 L220.205114,187.836503 C220.205114,186.583394 222.14854,185.615861 222.692519,185.336592 C223.782274,184.776252 237.163631,175.989179 237.892528,175.614418 C238.657331,175.220738 239.274918,174.359508 239.274918,173.114508 L239.274918,156.379972 C239.274918,154.962906 238.463437,153.880062 237.063992,153.880062 L219.931329,153.880062 L216.019344,153.880062 L216.019344,150.954941 C216.019344,150.954941 236.318937,138.074322 236.318937,102.723336 C236.318937,69.1713851 213.930499,54.1944443 211.840756,52.3963105 C209.751013,50.5990776 207.960189,50 203.183761,50 L180.348291,50 L176.616735,50 L153.781264,50 C149.004836,50 147.214012,50.5990776 145.124269,52.3963105 C143.034526,54.1944443 120.646986,69.1713851 120.646986,102.723336 C120.646986,138.074322 140.944783,150.954941 140.944783,150.954941 L140.944783,153.880062 L139.792193,153.880062 L122.936008,153.880062 C121.536563,153.880062 120.725082,154.962906 120.725082,156.379972 L120.725082,173.114508 C120.725082,174.359508 121.342669,175.220738 122.107472,175.614418 C122.836369,175.989179 136.217726,184.776252 137.307481,185.336592 C137.850563,185.615861 139.793988,186.583394 139.793988,187.836503 L139.793988,197.085721 C139.793988,198.346937 138.387361,199.509958 136.201569,200.418935 C134.016674,201.327911 103.357233,212.076175 102.210927,212.505889 C101.063722,212.935603 100,214.140965 100,215.561635 L100,360" id="Path"></path>
                </g>
            </g>
        </g>
    </g>
</svg>