<?xml version="1.0" encoding="UTF-8"?>
<svg width="240px" height="304px" viewBox="0 0 240 304" version="1.1" xmlns="http://www.w3.org/2000/svg" xmlns:xlink="http://www.w3.org/1999/xlink">
    <title>Path</title>
    <g id="Design" stroke="none" stroke-width="1" fill="none" fill-rule="evenodd" opacity="0.400000006">
        <g id="MO_MAN_100_04_PRODUCTS_01" transform="translate(-60.000000, -239.000000)" stroke="#FFFAF6">
            <g id="++-OUR-PRODUCTS" transform="translate(0.000000, 105.000000)">
                <path d="M61.5775819,438.00097 C61,424.329703 60.7724866,410.592566 61.2882986,399.016243 C64.2167907,333.285941 87.1469844,304.228716 100.876836,282.435918 C114.607167,260.64216 128.028983,243.414079 128.028983,229.492194 C128.028983,215.570309 114.859631,203.799177 111.21255,185.489487 C107.56451,167.179796 111.368723,146.913045 115.766491,135 L115.766491,135 L244.233063,135 C248.63131,146.913045 252.435045,167.179796 248.787963,185.489487 C245.140402,203.799177 231.97105,215.570309 231.97105,229.492194 C231.97105,243.414079 245.393346,260.64216 259.122718,282.435918 C272.85257,304.228716 295.782764,333.285941 298.711735,399.016243 C299.227547,410.592566 299,424.329703 298.422257,438.00097" id="Path"></path>
            </g>
        </g>
    </g>
</svg>