<?xml version="1.0" encoding="utf-8"?>
<!-- Generator: Adobe Illustrator 24.2.2, SVG Export Plug-In . SVG Version: 6.00 Build 0)  -->
<svg version="1.1" id="레이어_1" xmlns="http://www.w3.org/2000/svg" xmlns:xlink="http://www.w3.org/1999/xlink" x="0px"
	 y="0px" viewBox="0 0 480 360" style="enable-background:new 0 0 480 360;" xml:space="preserve">
<style type="text/css">
	.st0{opacity:0.3;}
	.st1{fill:none;stroke:#FFFAF6;}
</style>
<g id="Design" class="st0">
	<g id="PC_MAN_100_05_PRODUCTS_HOVER" transform="translate(-925.000000, -337.000000)">
		<g id="_x2B__x2B_-OUR-PRODUCT_x5F_DEFAULT" transform="translate(0.000000, 88.000000)">
			<g id="Group" transform="translate(816.000000, 184.000000)">
				<path id="Stroke-1" class="st1" d="M419.36,129.88c4.77,13.1,8.84,35.11,4.87,55.01c-1.9,9.56-6.18,17.49-10.13,24.82
					c-4.41,8.18-8.39,15.64-8.39,23.74c0,12.46,9.66,27.32,21.4,45.3c2.77,4.25,5.66,8.67,8.56,13.28c1.4,2.23,2.9,4.53,4.45,6.93
					c15.13,23.33,36.13,55.69,39.05,121.22c1.87,41.92-5.09,109.59-5.74,115.71l0,0H224.55c-0.64-6.12-7.6-73.79-5.74-115.71
					c2.92-65.53,23.92-97.9,39.05-121.22c1.55-2.39,3.05-4.69,4.45-6.93c2.9-4.61,5.79-9.03,8.56-13.27
					c11.75-17.98,21.41-32.85,21.41-45.3c0-8.1-3.99-15.56-8.39-23.74c-3.95-7.33-8.23-15.26-10.13-24.82
					c-3.96-19.9,0.11-41.91,4.87-55.01l0,0H419.36z"/>
			</g>
		</g>
	</g>
</g>
</svg>
