<?xml version="1.0" encoding="utf-8"?>
<!-- Generator: Adobe Illustrator 24.2.2, SVG Export Plug-In . SVG Version: 6.00 Build 0)  -->
<svg version="1.1" id="레이어_1" xmlns="http://www.w3.org/2000/svg" xmlns:xlink="http://www.w3.org/1999/xlink" x="0px"
	 y="0px" viewBox="0 0 480 360" style="enable-background:new 0 0 480 360;" xml:space="preserve">
<style type="text/css">
	.st0{opacity:0.3;}
	.st1{fill:none;stroke:#FFFAF6;}
</style>
<g id="Design" class="st0">
	<g id="PC_MAN_100_05_PRODUCTS_HOVER" transform="translate(-934.000000, -850.000000)">
		<g id="_x2B__x2B_-OUR-PRODUCT_x5F_DEFAULT" transform="translate(0.000000, 88.000000)">
			<g id="_x2B__x2B__x2B__x2B_-THUMB" transform="translate(816.000000, 704.000000)">
				<path id="Stroke-1" class="st1" d="M415.35,117.36c0,0,29.27,52.3,30.17,79.12c0.89,26.82-5.38,38.43-13.04,51.39
					c-7.67,12.96-16.31,24.88-16.31,38.34c0,13.46,22.98,52.3,42.39,81.57c19.42,29.27,27.72,68.85,27.72,112.56
					s-0.43,122.84-1.63,146c-1.2,23.16-6.96,88.83-17.94,121.53c-10.98,32.7-23.38,46.49-44.84,46.49H294.68
					c-21.46,0-33.86-13.79-44.84-46.49s-16.73-98.37-17.94-121.53c-1.2-23.16-1.63-102.29-1.63-146s8.3-83.29,27.72-112.56
					c19.42-29.27,42.39-68.11,42.39-81.57c0-13.46-8.64-25.38-16.31-38.34c-7.67-12.96-13.94-24.56-13.04-51.39
					c0.89-26.82,30.17-79.12,30.17-79.12H415.35z"/>
			</g>
		</g>
	</g>
</g>
</svg>
